<?xml version="1.0" standalone="no"?>
<!DOCTYPE svg PUBLIC "-//W3C//DTD SVG 20010904//EN"
 "http://www.w3.org/TR/2001/REC-SVG-20010904/DTD/svg10.dtd">
<svg version="1.0" xmlns="http://www.w3.org/2000/svg"
 width="300.000000pt" height="300.000000pt" viewBox="0 0 300.000000 300.000000"
 preserveAspectRatio="xMidYMid meet">
<metadata>
Created by potrace 1.10, written by Peter Selinger 2001-2011
</metadata>
<g transform="translate(0.000000,300.000000) scale(0.100000,-0.100000)"
fill="#000000" stroke="none">
<path d="M1265 2360 c-32 -33 -17 -42 15 -10 17 17 27 40 17 40 -2 0 -16 -13
-32 -30z"/>
<path d="M1189 2353 c-29 -30 -63 -93 -72 -134 -4 -14 -18 -31 -32 -37 -36
-17 -37 -16 -15 21 20 32 28 97 12 97 -26 0 -60 -65 -65 -122 l-3 -45 34 20
34 20 65 -32 c39 -20 87 -35 121 -38 l57 -6 -25 28 c-37 40 -58 49 -128 55
l-64 5 21 26 c11 15 18 29 15 32 -7 7 22 63 38 73 6 4 2 -8 -10 -28 -26 -42
-28 -56 -6 -37 23 19 56 88 52 111 -3 18 -5 17 -29 -9z m36 -197 c19 -8 35
-18 35 -22 0 -3 -8 -3 -17 1 -10 4 -34 14 -53 21 -19 7 -27 13 -17 14 10 0 33
-7 52 -14z"/>
<path d="M1420 2320 c-91 -10 -150 -30 -200 -70 -21 -16 -45 -30 -53 -30 -9 0
-19 -5 -23 -12 -5 -8 -2 -9 12 -4 10 5 67 16 127 27 82 14 120 26 162 51 30
18 55 36 55 40 0 5 -1 7 -2 7 -2 -1 -37 -5 -78 -9z m-90 -50 c-78 -19 -106
-20 -48 -2 48 15 70 20 98 20 14 0 -9 -8 -50 -18z"/>
<path d="M1523 2273 c4 -5 39 -13 79 -16 282 -24 549 -241 645 -525 38 -112
44 -295 14 -411 -12 -45 -31 -103 -43 -129 -97 -212 -292 -375 -517 -433 -106
-28 -296 -28 -402 0 -223 58 -412 215 -510 425 -32 68 -69 193 -69 234 0 12
-5 22 -11 22 -6 0 -8 -8 -5 -17 2 -10 8 -38 11 -63 4 -25 20 -80 36 -123 84
-233 267 -404 519 -485 77 -24 99 -27 230 -27 121 1 157 4 215 23 308 96 513
319 571 619 73 385 -177 774 -567 883 -87 24 -205 38 -196 23z"/>
<path d="M956 2220 c-9 -22 -19 -66 -22 -97 -7 -53 -28 -102 -46 -103 -4 0 -3
12 2 26 17 42 -26 166 -45 134 -19 -31 -22 -82 -8 -142 14 -60 13 -64 -8 -110
-12 -26 -24 -46 -26 -45 -2 2 1 25 6 51 16 85 -25 195 -49 131 -14 -38 -12
-96 5 -145 8 -23 15 -57 15 -74 1 -28 2 -29 12 -11 30 54 49 65 115 65 41 0
72 6 88 16 32 21 37 39 11 40 -11 1 -38 5 -59 9 -33 7 -42 4 -79 -25 l-41 -34
18 32 c23 38 63 82 74 82 5 0 28 -7 51 -15 50 -18 93 -19 121 -4 18 9 16 12
-26 35 -27 14 -61 24 -83 23 l-37 -1 44 -9 c58 -11 68 -23 11 -14 -25 5 -53 8
-64 7 -17 -1 -16 1 4 24 13 13 20 24 17 24 -4 0 2 18 13 40 20 39 28 130 11
130 -5 0 -16 -18 -25 -40z m-157 -260 c-1 -53 -6 -44 -12 24 -3 30 -1 43 4 35
5 -8 8 -34 8 -59z"/>
<path d="M1035 2131 c-11 -5 -25 -6 -31 -4 -5 2 -19 -6 -29 -17 -19 -21 -19
-21 9 -14 21 5 45 -1 96 -26 l69 -33 45 17 c49 19 60 36 24 36 -13 0 -45 12
-73 25 -52 26 -76 29 -110 16z m86 -31 c35 -16 56 -29 46 -30 -18 0 -117 46
-117 55 0 8 4 7 71 -25z"/>
<path d="M691 1937 c-22 -56 -14 -94 31 -142 40 -44 41 -45 59 -27 9 11 38 23
63 26 45 7 97 41 116 75 8 16 4 17 -48 10 -50 -7 -62 -13 -94 -49 -20 -22 -38
-37 -40 -33 -3 5 -3 2 -2 -4 2 -7 -1 -13 -6 -13 -5 0 -14 24 -20 53 -6 28 -19
70 -29 92 l-19 40 -11 -28z m239 -72 c0 -7 -52 -31 -85 -39 -58 -14 6 19 83
43 1 1 2 -1 2 -4z"/>
<path d="M645 1841 c-4 -7 -7 -33 -8 -59 0 -43 3 -49 53 -93 43 -38 53 -53 53
-79 0 -26 2 -29 10 -13 6 10 19 32 29 48 l20 30 -26 -28 -26 -28 0 25 c0 30
-43 130 -60 141 -7 4 -18 21 -25 37 -8 20 -15 26 -20 19z"/>
<path d="M874 1779 c-42 -13 -70 -29 -92 -54 -30 -32 -46 -63 -20 -37 7 7 31
12 54 12 31 0 51 7 73 26 30 25 57 63 49 68 -2 2 -30 -5 -64 -15z m26 -14 c0
-5 -24 -16 -69 -30 -16 -5 -21 -4 -17 4 9 14 86 38 86 26z"/>
<path d="M1105 1526 l0 -214 50 -4 50 -3 0 217 0 218 -50 0 -50 0 0 -214z m59
-58 c-3 -40 -8 -75 -10 -77 -2 -2 -4 30 -4 72 0 48 4 77 11 77 7 0 8 -24 3
-72z"/>
<path d="M1316 1628 c-73 -78 -101 -115 -92 -120 7 -4 45 -50 85 -101 l72 -95
62 -4 c34 -3 64 -3 67 -1 3 2 -5 12 -16 21 -12 9 -62 70 -112 135 l-90 117 79
80 c44 44 73 80 65 80 -8 0 -62 -51 -120 -112z"/>
<path d="M1565 1723 c5 -10 33 -107 63 -215 l55 -198 49 0 c54 0 64 2 61 12
-3 9 93 362 107 396 7 16 6 22 -3 22 -8 0 -20 -28 -30 -67 -36 -143 -86 -325
-90 -330 -6 -5 -2 -19 -64 214 l-48 183 -54 0 c-47 0 -52 -2 -46 -17z"/>
<path d="M866 1670 c-50 -20 -86 -46 -86 -63 0 -6 10 -1 23 11 12 11 36 25 52
31 25 9 27 9 13 -1 -25 -19 -82 -52 -91 -52 -5 -1 -14 -12 -21 -24 l-13 -24
-18 29 c-23 36 -66 83 -77 83 -14 0 -9 -41 9 -70 9 -15 32 -37 52 -48 l36 -21
16 27 c11 19 32 32 70 44 51 16 72 34 103 86 10 16 -8 14 -68 -8z"/>
<path d="M655 1520 c75 -87 114 -93 179 -28 23 23 36 43 29 45 -14 5 -65 -20
-82 -41 -7 -9 -17 -13 -22 -10 -5 3 -9 -2 -9 -10 0 -23 -24 -20 -46 6 -17 19
-17 21 -1 15 9 -4 17 -2 17 3 0 5 -12 13 -27 16 -16 4 -37 14 -48 23 -11 8 -6
0 10 -19z"/>
</g>
</svg>
